<svg xmlns="http://www.w3.org/2000/svg" viewBox="0 0 400 400"><defs><style>.cls-1,.cls-3,.cls-8{fill:#f1faee;}.cls-2,.cls-4,.cls-6{fill:#1d3557;}.cls-3,.cls-4,.cls-7,.cls-8,.cls-9{stroke:#1d3557;}.cls-3,.cls-4,.cls-5,.cls-6,.cls-7,.cls-8{stroke-miterlimit:10;}.cls-3{stroke-width:9px;}.cls-4,.cls-6{stroke-width:2px;}.cls-5,.cls-7,.cls-9{fill:none;}.cls-5,.cls-6{stroke:#f1faee;}.cls-5,.cls-9{stroke-width:5px;}.cls-7,.cls-8,.cls-9{stroke-linecap:round;}.cls-7,.cls-8{stroke-width:8px;}.cls-9{stroke-linejoin:bevel;}</style></defs><title>home-4</title><g id="Layer_3" data-name="Layer 3"><rect class="cls-1" x="4.5" y="4.5" width="391" height="391"/><path class="cls-2" d="M391,9V391H9V9H391m9-9H0V400H400V0Z"/><path class="cls-3" d="M94.5,166.5"/><path class="cls-3" d="M261.5,125.5s48,7,49,44"/></g><g id="Layer_2" data-name="Layer 2"><circle class="cls-4" cx="168.5" cy="139.5" r="40.5"/><circle class="cls-4" cx="330.5" cy="139.5" r="40.5"/><rect class="cls-4" x="169" y="99" width="166" height="81"/><circle class="cls-4" cx="291" cy="115.5" r="64.5"/><circle class="cls-4" cx="207" cy="125" r="54"/><path class="cls-5" d="M291,63s44,3,48.5,41.5"/><rect class="cls-6" x="95" y="132" width="116" height="56" rx="7.9571"/><path class="cls-1" d="M153.6874,167.885l51.369-28.9768a1.3991,1.3991,0,0,0-.6874-2.6176H101.631a1.3991,1.3991,0,0,0-.6874,2.6176l51.369,28.9768A1.4,1.4,0,0,0,153.6874,167.885Z"/><ellipse class="cls-6" cx="337.4536" cy="347.8023" rx="11.3929" ry="11.122" transform="translate(-52.3746 635.683) rotate(-82.3104)"/><path class="cls-7" d="M315,351a25.985,25.985,0,0,1,26-26"/><path class="cls-7" d="M298,353a42.9752,42.9752,0,0,1,43-43"/><path class="cls-7" d="M281,355a58.9661,58.9661,0,0,1,59-59"/></g><g id="Layer_4" data-name="Layer 4"><line class="cls-7" x1="50" y1="348" x2="223" y2="348"/><rect class="cls-8" x="56" y="317" width="11" height="21" rx="2.6857"/><rect class="cls-8" x="78" y="305" width="11" height="33" rx="2.6857"/><rect class="cls-8" x="99" y="296" width="11" height="42" rx="2.6857"/><rect class="cls-8" x="120" y="296" width="11" height="42" rx="2.6857"/><rect class="cls-8" x="141" y="301" width="11" height="37" rx="2.6857"/><rect class="cls-8" x="162" y="281" width="11" height="57" rx="2.6857"/><rect class="cls-8" x="183" y="267" width="11" height="71" rx="2.6857"/><rect class="cls-8" x="204" y="251" width="11" height="87" rx="2.6857"/><polyline class="cls-9" points="53 299 85 286 105 273 141 279 165 261 183 245 211 226"/></g></svg>