<svg xmlns="http://www.w3.org/2000/svg" viewBox="0 0 400 400"><defs><style>.cls-1{fill:#1d3557;}.cls-2{fill:#f1faee;}.cls-3{fill:#fff;}</style></defs><title>home-3</title><g id="Layer_3" data-name="Layer 3"><rect class="cls-1" x="4.5" y="4.5" width="391" height="391"/><path class="cls-2" d="M391,9V391H9V9H391m9-9H0V400H400V0Z"/></g><g id="Layer_1" data-name="Layer 1"><path class="cls-2" d="M82.4429,324.5A23.97,23.97,0,0,1,58.5,300.5576V276.543a4.0473,4.0473,0,0,1,4.043-4.043H336.457a4.0473,4.0473,0,0,1,4.043,4.043v23.8144A24.17,24.17,0,0,1,316.3574,324.5Z"/><path class="cls-1" d="M336,277v23.3572A19.665,19.665,0,0,1,316.3572,320H82.4429A19.4649,19.4649,0,0,1,63,300.5571V277H336m.4572-9H62.5429A8.5429,8.5429,0,0,0,54,276.5428v24.0143A28.4429,28.4429,0,0,0,82.4429,329H316.3572A28.6428,28.6428,0,0,0,345,300.3572V276.5428A8.5429,8.5429,0,0,0,336.4572,268Z"/><rect class="cls-3" x="61" y="65" width="277" height="200" rx="10.5"/><path class="cls-1" d="M327.5,72a3.504,3.504,0,0,1,3.5,3.5v179a3.504,3.504,0,0,1-3.5,3.5H71.5a3.504,3.504,0,0,1-3.5-3.5V75.5A3.504,3.504,0,0,1,71.5,72h256m0-14H71.5A17.5,17.5,0,0,0,54,75.5v179A17.5,17.5,0,0,0,71.5,272h256A17.5,17.5,0,0,0,345,254.5V75.5A17.5,17.5,0,0,0,327.5,58Z"/><path class="cls-1" d="M71.9858,73H327.0142A2.9858,2.9858,0,0,1,330,75.9858V253.0146A2.9854,2.9854,0,0,1,327.0146,256H71.9854A2.9854,2.9854,0,0,1,69,253.0146V75.9858A2.9858,2.9858,0,0,1,71.9858,73Z"/><path class="cls-2" d="M323,80V249H76V80H323m4.0143-14H71.9857A9.9858,9.9858,0,0,0,62,75.9857V253.0143A9.9858,9.9858,0,0,0,71.9857,263H327.0143A9.9858,9.9858,0,0,0,337,253.0143V75.9857A9.9858,9.9858,0,0,0,327.0143,66Z"/><path class="cls-1" d="M237,293v11H160V293h77m6-6H154v23h89V287Z"/></g><g id="Layer_2" data-name="Layer 2"><rect class="cls-1" x="199" y="167" width="127" height="169" rx="8.3428"/><path class="cls-1" d="M317.6571,174A1.3444,1.3444,0,0,1,319,175.3428V327.6571A1.3444,1.3444,0,0,1,317.6571,329H207.3428A1.3444,1.3444,0,0,1,206,327.6571V175.3428A1.3443,1.3443,0,0,1,207.3428,174H317.6571m0-14H207.3428A15.3428,15.3428,0,0,0,192,175.3428V327.6571A15.3428,15.3428,0,0,0,207.3428,343H317.6571A15.3428,15.3428,0,0,0,333,327.6571V175.3428A15.3428,15.3428,0,0,0,317.6571,160Z"/><path class="cls-1" d="M212.4424,172H312.5571A6.4429,6.4429,0,0,1,319,178.4429V323.5576A6.4424,6.4424,0,0,1,312.5576,330H212.4424A6.4424,6.4424,0,0,1,206,323.5576V178.4424A6.4424,6.4424,0,0,1,212.4424,172Z"/><path class="cls-2" d="M312,179V323H213V179h99m.5571-14H212.4428A13.4429,13.4429,0,0,0,199,178.4428V323.5571A13.4429,13.4429,0,0,0,212.4428,337H312.5571A13.4429,13.4429,0,0,0,326,323.5571V178.4428A13.4429,13.4429,0,0,0,312.5571,165Z"/><rect class="cls-3" x="260" y="325" width="10" height="10" rx="5"/><path class="cls-1" d="M265,325a5,5,0,1,0,5,5,5,5,0,0,0-5-5Z"/><rect class="cls-1" x="292" y="229" width="57" height="125" rx="8.3428"/><path class="cls-1" d="M340.6572,236A1.3443,1.3443,0,0,1,342,237.3428V345.6572A1.3443,1.3443,0,0,1,340.6572,347H300.3428A1.3443,1.3443,0,0,1,299,345.6572V237.3428A1.3443,1.3443,0,0,1,300.3428,236h40.3144m0-14H300.3428A15.3428,15.3428,0,0,0,285,237.3428V345.6572A15.3428,15.3428,0,0,0,300.3428,361h40.3144A15.3428,15.3428,0,0,0,356,345.6572V237.3428A15.3428,15.3428,0,0,0,340.6572,222Z"/><path class="cls-1" d="M302.2188,231.5h37.0654a8.9424,8.9424,0,0,1,8.9424,8.9424V343.5566a8.9434,8.9434,0,0,1-8.9434,8.9434H302.2188a8.9424,8.9424,0,0,1-8.9424-8.9424V240.4424A8.9424,8.9424,0,0,1,302.2188,231.5Z"/><path class="cls-2" d="M339.2835,236a4.4479,4.4479,0,0,1,4.4429,4.4428V343.5571A4.448,4.448,0,0,1,339.2835,348H302.2189a4.448,4.448,0,0,1-4.4429-4.4429V240.4428A4.4479,4.4479,0,0,1,302.2189,236h37.0646m0-9H302.2189a13.4429,13.4429,0,0,0-13.4429,13.4428V343.5571A13.4429,13.4429,0,0,0,302.2189,357h37.0646a13.4429,13.4429,0,0,0,13.4429-13.4429V240.4428A13.4429,13.4429,0,0,0,339.2835,227Z"/><rect class="cls-1" x="317.2411" y="348.888" width="6.7589" height="7.112" rx="3.3794"/><path class="cls-1" d="M320.6206,348.888a3.38,3.38,0,0,0-3.38,3.38v.3531a3.3795,3.3795,0,0,0,6.7589,0v-.3531a3.38,3.38,0,0,0-3.3794-3.38Z"/></g></svg>