<svg xmlns="http://www.w3.org/2000/svg" width="400" height="400" viewBox="0 0 400 400"><defs><style>.cls-1{fill:#f1faee;}.cls-2{fill:#e63946;}.cls-3{fill:#a8dadc;}.cls-4,.cls-5,.cls-6{fill:none;}.cls-4,.cls-5,.cls-6,.cls-8{stroke:#457b9d;stroke-linecap:round;stroke-linejoin:round;}.cls-4{stroke-width:6px;}.cls-5{stroke-width:10px;}.cls-6,.cls-8{stroke-width:7px;}.cls-7{fill:#457b9d;}.cls-8{fill:#1d3557;}</style></defs><title>e-commerce</title><g id="Layer_2" data-name="Layer 2"><rect class="cls-1" x="0.5" y="0.5" width="399" height="399"/><path class="cls-1" d="M399,1V399H1V1H399m1-1H0V400H400V0Z"/></g><g id="Layer_4" data-name="Layer 4"><path class="cls-2" d="M123.5615,238.5l15.709-135.0151A4.5057,4.5057,0,0,1,143.7461,99.5H225.252a4.5078,4.5078,0,0,1,4.4775,3.9868L245.4385,238.5Z"/><path class="cls-2" d="M225.252,100a4.0079,4.0079,0,0,1,3.9812,3.5449L244.8769,238H124.1231L139.767,103.5429A4.0056,4.0056,0,0,1,143.746,100h81.506m0-1H143.746a5.0058,5.0058,0,0,0-4.9723,4.4273L123,239H246L230.2265,103.4294A5.008,5.008,0,0,0,225.252,99Z"/><circle class="cls-3" cx="165.5" cy="109.5" r="4"/><path class="cls-3" d="M165.5,106a3.5,3.5,0,1,1-3.5,3.5,3.504,3.504,0,0,1,3.5-3.5m0-1a4.5,4.5,0,1,0,4.5,4.5,4.5,4.5,0,0,0-4.5-4.5Z"/><circle class="cls-3" cx="206.5" cy="110.5" r="4"/><path class="cls-3" d="M206.5,107a3.5,3.5,0,1,1-3.5,3.5,3.504,3.504,0,0,1,3.5-3.5m0-1a4.5,4.5,0,1,0,4.5,4.5,4.5,4.5,0,0,0-4.5-4.5Z"/><path class="cls-4" d="M165.6511,107.4936c.3922-16.0114,9.8856-28.7665,21.204-28.4893s20.1759,13.4819,19.7837,29.4934"/></g><g id="cart"><polyline class="cls-5" points="377 99 334 99 266 296 54 299"/><polyline class="cls-6" points="323.765 128.652 28 129 49 247 282.914 247"/><circle class="cls-7" cx="67.25" cy="328.5" r="20.25"/><path class="cls-7" d="M67.25,308.75A19.75,19.75,0,1,1,47.5,328.5a19.7724,19.7724,0,0,1,19.75-19.75m0-1A20.75,20.75,0,1,0,88,328.5a20.75,20.75,0,0,0-20.75-20.75Z"/><circle class="cls-7" cx="246" cy="326" r="20.5"/><path class="cls-7" d="M246,306a20,20,0,1,1-20,20,20.0227,20.0227,0,0,1,20-20m0-1a21,21,0,1,0,21,21,21,21,0,0,0-21-21Z"/><line class="cls-8" x1="38.2685" y1="186.6991" x2="303.7282" y2="186.6991"/><line class="cls-8" x1="96.5" y1="129.5" x2="96.5" y2="246"/><line class="cls-8" x1="206.5" y1="130.5" x2="206.5" y2="247"/><line class="cls-8" x1="152.5" y1="129.5" x2="152.5" y2="246"/><line class="cls-8" x1="260.5" y1="130.5" x2="260.5" y2="247"/></g></svg>