<svg xmlns="http://www.w3.org/2000/svg" width="400" height="400" viewBox="0 0 400 400"><defs><style>.cls-1{fill:#f1faee;}.cls-2{fill:#a8dadc;}.cls-3{fill:#1d3557;}.cls-4{fill:#457b9d;}.cls-5{fill:#e63946;}</style></defs><title>content-marketing-1_v1</title><g id="Layer_2" data-name="Layer 2"><rect class="cls-1" x="0.5" y="0.5" width="399" height="399"/><path class="cls-1" d="M399,1V399H1V1H399m1-1H0V400H400V0Z"/></g><g id="Layer_3" data-name="Layer 3"><rect class="cls-2" x="21.5" y="57.5" width="357" height="285" rx="12.1738"/><path class="cls-2" d="M366.3261,58A11.6871,11.6871,0,0,1,378,69.6739V330.3261A11.6871,11.6871,0,0,1,366.3261,342H33.6739A11.6871,11.6871,0,0,1,22,330.3261V69.6739A11.6871,11.6871,0,0,1,33.6739,58H366.3261m0-1H33.6739A12.6739,12.6739,0,0,0,21,69.6739V330.3261A12.6739,12.6739,0,0,0,33.6739,343H366.3261A12.6739,12.6739,0,0,0,379,330.3261V69.6739A12.6739,12.6739,0,0,0,366.3261,57Z"/><path class="cls-3" d="M21.5,82.5V66.9131A9.4238,9.4238,0,0,1,30.9131,57.5H369a9.5108,9.5108,0,0,1,9.5,9.5V82.5Z"/><path class="cls-3" d="M369,58a9.01,9.01,0,0,1,9,9V82H22V66.913A8.9232,8.9232,0,0,1,30.913,58H369m0-1H30.913A9.913,9.913,0,0,0,21,66.913V83H379V67a10,10,0,0,0-10-10Z"/></g><g id="Layer_4" data-name="Layer 4"><circle class="cls-3" cx="204.25" cy="184.25" r="52.25"/><path class="cls-3" d="M204.25,132.5a51.75,51.75,0,1,1-51.75,51.75,51.8087,51.8087,0,0,1,51.75-51.75m0-1A52.75,52.75,0,1,0,257,184.25a52.75,52.75,0,0,0-52.75-52.75Z"/><polygon class="cls-2" points="194.328 164.807 226.46 183.358 194.328 201.909 194.328 164.807"/><path class="cls-2" d="M194.828,165.6729l30.632,17.6853-30.632,17.6854V165.6729m-1-1.7321v38.8348l33.632-19.4174-33.632-19.4174Z"/><path class="cls-1" d="M53.3477,325.5a14.8477,14.8477,0,1,1,0-29.6953H351.6523a14.8477,14.8477,0,1,1,0,29.6953Z"/><path class="cls-1" d="M351.6522,296.3044a14.3478,14.3478,0,0,1,0,28.6956H53.3478a14.3478,14.3478,0,1,1,0-28.6956H351.6522m0-1H53.3478A15.3478,15.3478,0,0,0,38,310.6521h0A15.3479,15.3479,0,0,0,53.3478,326H351.6522A15.3479,15.3479,0,0,0,367,310.6522h0a15.3478,15.3478,0,0,0-15.3478-15.3477Z"/><path class="cls-4" d="M49.978,325.5A13.4939,13.4939,0,0,1,36.5,312.0215,16.54,16.54,0,0,1,53.022,295.5H123.5v30Z"/><path class="cls-4" d="M123,296v29H49.9782A12.9929,12.9929,0,0,1,37,312.0217,16.04,16.04,0,0,1,53.0217,296H123m1-1H53.0217A17.0217,17.0217,0,0,0,36,312.0217h0A13.9783,13.9783,0,0,0,49.9782,326H124V295Z"/><circle class="cls-3" cx="124.5" cy="310.5" r="15"/><path class="cls-3" d="M124.5,296A14.5,14.5,0,1,1,110,310.5,14.5165,14.5165,0,0,1,124.5,296m0-1A15.5,15.5,0,1,0,140,310.5,15.5,15.5,0,0,0,124.5,295Z"/><circle class="cls-5" cx="360" cy="70" r="8.5"/><path class="cls-5" d="M360,62a8,8,0,1,1-8,8,8.0091,8.0091,0,0,1,8-8m0-1a9,9,0,1,0,9,9,9,9,0,0,0-9-9Z"/><circle class="cls-4" cx="338" cy="70" r="8.5"/><path class="cls-4" d="M338,62a8,8,0,1,1-8,8,8.0091,8.0091,0,0,1,8-8m0-1a9,9,0,1,0,9,9,9,9,0,0,0-9-9Z"/><circle class="cls-2" cx="316" cy="70" r="8.5"/><path class="cls-2" d="M316,62a8,8,0,1,1-8,8,8.0091,8.0091,0,0,1,8-8m0-1a9,9,0,1,0,9,9,9,9,0,0,0-9-9Z"/></g></svg>