<svg xmlns="http://www.w3.org/2000/svg" width="400" height="400" viewBox="0 0 400 400"><defs><style>.cls-1{fill:#f1faee;}.cls-2{fill:#457b9d;}.cls-3{fill:#e63946;}.cls-4,.cls-5{fill:#1d3557;}.cls-4{stroke:#1d3557;stroke-miterlimit:10;}</style></defs><title>going_digital-2_v1</title><g id="Layer_2" data-name="Layer 2"><rect class="cls-1" x="0.5" y="0.5" width="399" height="399"/><path class="cls-1" d="M399,1V399H1V1H399m1-1H0V400H400V0Z"/></g><g id="Layer_3" data-name="Layer 3"><path class="cls-2" d="M202.13,118.99A22.8954,22.8954,0,0,1,225,141.86V353.1a22.8955,22.8955,0,0,1-22.87,22.87H104.87A22.8955,22.8955,0,0,1,82,353.1V141.86a22.8954,22.8954,0,0,1,22.87-22.87H202.13m0-2H104.87A24.87,24.87,0,0,0,80,141.86V353.1a24.87,24.87,0,0,0,24.87,24.87H202.13A24.87,24.87,0,0,0,227,353.1V141.86a24.87,24.87,0,0,0-24.87-24.87Z"/><path class="cls-2" d="M214.6522,162a.3482.3482,0,0,1,.3478.3478V340.6522a.3482.3482,0,0,1-.3478.3478H93.3478A.3482.3482,0,0,1,93,340.6522V162.3478A.3482.3482,0,0,1,93.3478,162H214.6522m0-2H93.3478A2.3479,2.3479,0,0,0,91,162.3478V340.6522A2.3478,2.3478,0,0,0,93.3478,343H214.6522A2.3478,2.3478,0,0,0,217,340.6522V162.3478A2.3479,2.3479,0,0,0,214.6522,160Z"/><path class="cls-2" d="M154,351a9,9,0,1,1-9,9,9.01,9.01,0,0,1,9-9m0-2a11,11,0,1,0,11,11,11,11,0,0,0-11-11Z"/><path class="cls-2" d="M168,139v2H145v-2h23m.7283-2H144.2717A1.2718,1.2718,0,0,0,143,138.2717v3.4566A1.2718,1.2718,0,0,0,144.2717,143h24.4566A1.2718,1.2718,0,0,0,170,141.7283v-3.4566A1.2718,1.2718,0,0,0,168.7283,137Z"/></g><g id="Layer_4" data-name="Layer 4"><path class="cls-1" d="M229.5,115.5V65A50.5,50.5,0,1,1,280,115.5Z"/><path class="cls-2" d="M280,16a49,49,0,0,1,0,98H231V65a49.0555,49.0555,0,0,1,49-49m0-3a52,52,0,0,0-52,52v52h52a52,52,0,0,0,0-104Z"/><path class="cls-1" d="M309.6807,237.3955a45.0975,45.0975,0,0,1-32.1-13.2959l-32.1-32.1,32.1-32.0991a45.3952,45.3952,0,1,1,32.1,77.4946Z"/><path class="cls-2" d="M309.68,148.1048a43.8952,43.8952,0,1,1-31.0386,74.9338L247.603,192l31.0386-31.0386A43.6079,43.6079,0,0,1,309.68,148.1048m0-3A46.7484,46.7484,0,0,0,276.52,158.84L243.36,192l33.16,33.16a46.8952,46.8952,0,1,0,33.16-80.0551Z"/><path class="cls-1" d="M117.8486,98.9082a43.5,43.5,0,1,1,50.06-35.7568L160.7568,106.06Z"/><path class="cls-2" d="M124.9472,10.993v3a42.04,42.04,0,0,1,41.4814,48.9118l-6.9048,41.4285-41.4285-6.9047a42.0043,42.0043,0,0,1,6.8506-83.4356l.0013-3m-.0014,0a45.0038,45.0038,0,0,0-7.3437,89.3947l44.3877,7.398,7.3979-44.3877a45.0394,45.0394,0,0,0-44.4419-52.405Z"/><path class="cls-1" d="M303.0273,362.97a50.02,50.02,0,0,1-49.11-42.3154l-7.4219-49.1738,49.1738-7.4229a49.6782,49.6782,0,0,1,56.5967,41.751,49.73,49.73,0,0,1-41.7519,56.5967,50.3393,50.3393,0,0,1-7.4834.5644Z"/><path class="cls-2" d="M303.1551,264.9932a48.235,48.235,0,0,1,7.1349,95.9291,48.8242,48.8242,0,0,1-7.2623.5472A48.2446,48.2446,0,0,1,255.4005,320.43l-7.1987-47.691,47.691-7.1986a48.8242,48.8242,0,0,1,7.2623-.5472m0-3a51.63,51.63,0,0,0-7.71.5808L244.7877,270.22l7.6464,50.6573a51.2311,51.2311,0,1,0,50.721-58.8845Z"/><circle class="cls-3" cx="126.5" cy="56.5" r="24.5"/><path class="cls-3" d="M126.5,32.5a24,24,0,1,1-24,24,24.0272,24.0272,0,0,1,24-24m0-1a25,25,0,1,0,25,25,25,25,0,0,0-25-25Z"/><polygon class="cls-1" points="122.061 47.741 136.5 56.077 122.061 64.414 122.061 47.741"/><path class="cls-1" d="M122.5607,48.6068,135.5,56.0773l-12.9393,7.4706V48.6068m-1-1.732V65.28L137.5,56.0773l-15.9393-9.2025Z"/><rect class="cls-3" x="252.5" y="49.5" width="59" height="27.9653"/><path class="cls-3" d="M311,50V76.9655H253V50h58m1-1H252V77.9655h60V49Z"/><path class="cls-1" d="M282.4947,68.66l25.4917-14.38a1.0069,1.0069,0,0,0-.4947-1.8838H256.5083a1.0069,1.0069,0,0,0-.4947,1.8838l25.4917,14.38A1.0069,1.0069,0,0,0,282.4947,68.66Z"/><path class="cls-3" d="M319.87,174a8.14,8.14,0,0,1,8.13,8.13V204.87a8.14,8.14,0,0,1-8.13,8.13H292.13a8.14,8.14,0,0,1-8.13-8.13V182.13a8.14,8.14,0,0,1,8.13-8.13H319.87m0-4H292.13A12.13,12.13,0,0,0,280,182.13V204.87A12.13,12.13,0,0,0,292.13,217H319.87A12.13,12.13,0,0,0,332,204.87V182.13A12.13,12.13,0,0,0,319.87,170Z"/><path class="cls-3" d="M280.5,187.5v-6.7827A10.2293,10.2293,0,0,1,290.7178,170.5h31.3037a9.4891,9.4891,0,0,1,9.4785,9.478V187.5Z"/><path class="cls-3" d="M322.0217,171A8.9884,8.9884,0,0,1,331,179.9783V187H281v-6.2826A9.7284,9.7284,0,0,1,290.7174,171h31.3043m0-1H290.7174A10.7173,10.7173,0,0,0,280,180.7174V188h52v-8.0217A9.9783,9.9783,0,0,0,322.0217,170Z"/><path class="cls-4" d="M296.1494,205.8994a7.3465,7.3465,0,0,0,3.6,1.0244c2.8242,0,3.6992-1.7988,3.6739-3.1484-.0254-2.2744-2.0743-3.25-4.1993-3.25H297.999V198.876h1.2246c1.6,0,3.6241-.8242,3.6241-2.749,0-1.3-.8243-2.45-2.8487-2.45a5.9729,5.9729,0,0,0-3.25,1.0748l-.5742-1.6a7.7242,7.7242,0,0,1,4.249-1.2495c3.1992,0,4.6485,1.8994,4.6485,3.8741a4.0343,4.0343,0,0,1-2.9991,3.8237v.0508a4.2317,4.2317,0,0,1,3.6241,4.1738c0,2.5986-2.0244,4.874-5.9239,4.874a8.2516,8.2516,0,0,1-4.2236-1.1006Z"/><path class="cls-4" d="M313.2227,194.2275h-.05l-2.8243,1.5245-.4248-1.6749,3.5489-1.8994h1.875v16.2461h-2.125Z"/><path class="cls-3" d="M296.5,286.6961a16.2986,16.2986,0,0,1,16.28,16.28,16.0961,16.0961,0,0,1-1.7179,7.2393l-.4823.9676-13.8817,24.0439-12.2281-21.18-.1782-.3086-.23-.2723a16.27,16.27,0,0,1,12.4379-26.77m0-4a20.27,20.27,0,0,0-15.4939,33.3512l15.6922,27.18L314.7273,312h-.085A20.2481,20.2481,0,0,0,296.5,282.6961Z"/><circle class="cls-1" cx="297" cy="300" r="5.5"/><path class="cls-5" d="M297,296a4,4,0,1,1-4,4,4.0045,4.0045,0,0,1,4-4m0-3a7,7,0,1,0,7,7,7,7,0,0,0-7-7Z"/></g></svg>