<svg xmlns="http://www.w3.org/2000/svg" width="400" height="400" viewBox="0 0 400 400"><defs><style>.cls-1{fill:#f1faee;}.cls-2{fill:#a8dadc;}.cls-3,.cls-5{fill:none;stroke-linecap:round;}.cls-3{stroke:#e63946;stroke-linejoin:round;stroke-width:6px;}.cls-4{fill:#1d3557;}.cls-5{stroke:#f1faee;stroke-miterlimit:10;stroke-width:10px;}</style></defs><title>sales-innovation-1_v1</title><g id="Layer_2" data-name="Layer 2"><rect class="cls-1" x="0.5" y="0.5" width="399" height="399"/><path class="cls-1" d="M399,1V399H1V1H399m1-1H0V400H400V0Z"/></g><g id="Layer_3" data-name="Layer 3"><path class="cls-2" d="M156.5,318a9.5108,9.5108,0,0,1-9.5-9.5V269.8164a96.51,96.51,0,0,0-21.5366-61.0195A104.1008,104.1008,0,0,1,204.5186,39.01c.497-.0069.9863-.01,1.4814-.01A104.1179,104.1179,0,0,1,310,143,102.85,102.85,0,0,1,287.167,208.02,99.296,99.296,0,0,0,265,269.7832V308.5a9.5108,9.5108,0,0,1-9.5,9.5Z"/><path class="cls-2" d="M206,39.5A103.6172,103.6172,0,0,1,309.5,143a102.353,102.353,0,0,1-22.7231,64.7067A99.801,99.801,0,0,0,264.5,269.7828V308.5a9.01,9.01,0,0,1-9,9h-99a9.01,9.01,0,0,1-9-9V269.8164a97.0084,97.0084,0,0,0-21.65-61.3359A103.6014,103.6014,0,0,1,204.5253,39.51c.4943-.0068.982-.01,1.4747-.01m0-1c-.4974,0-.99.0034-1.4887.01-55.67.7748-101.3637,45.7525-102.9668,101.4049a104.0908,104.0908,0,0,0,23.5316,69.1985A95.7969,95.7969,0,0,1,146.5,269.8164V308.5a10,10,0,0,0,10,10h99a10,10,0,0,0,10-10V269.7828a98.3233,98.3233,0,0,1,22.0569-61.45A104.4978,104.4978,0,0,0,206,38.5Z"/><circle class="cls-1" cx="207.25" cy="144.375" r="78.875"/><path class="cls-1" d="M207.25,66a78.375,78.375,0,1,1-78.375,78.375A78.4638,78.4638,0,0,1,207.25,66m0-1a79.375,79.375,0,1,0,79.375,79.375A79.375,79.375,0,0,0,207.25,65Z"/><polyline class="cls-3" points="180.044 327.451 156.5 125.549 172.411 142.557 180.092 135.973 187.773 141.459 197.649 135.973 208.622 141.459 223.984 129.389 240.443 140.362 258 126.097 228.134 327.451"/><path class="cls-4" d="M198.2173,357.5A14.7343,14.7343,0,0,1,183.5,342.7822V322.5h41.6123v19.8477A15.169,15.169,0,0,1,209.96,357.5Z"/><path class="cls-4" d="M224.6122,323v19.3478A14.6687,14.6687,0,0,1,209.96,357H198.2174A14.2335,14.2335,0,0,1,184,342.7826V323h40.6122m1-1H183v20.7826A15.2174,15.2174,0,0,0,198.2174,358H209.96a15.6521,15.6521,0,0,0,15.6521-15.6522V322Z"/><path class="cls-4" d="M166.7393,343.5A20.2619,20.2619,0,0,1,146.5,323.2607V267.5h119v55.8047A20.2182,20.2182,0,0,1,245.3047,343.5Z"/><path class="cls-4" d="M265,268v55.3044A19.7179,19.7179,0,0,1,245.3044,343H166.7391A19.7614,19.7614,0,0,1,147,323.2609V268H265m1-1H146v56.2609A20.7391,20.7391,0,0,0,166.7391,344h78.5653A20.6956,20.6956,0,0,0,266,323.3044V267Z"/><path class="cls-2" d="M144.0435,275.5H267.9561a3.5439,3.5439,0,0,1,3.5439,3.5439v1.9121a3.5439,3.5439,0,0,1-3.5439,3.5439H144.0439a3.5439,3.5439,0,0,1-3.5439-3.5439v-1.9126A3.5435,3.5435,0,0,1,144.0435,275.5Z"/><path class="cls-2" d="M267.9565,276A3.0469,3.0469,0,0,1,271,279.0435v1.913A3.0469,3.0469,0,0,1,267.9565,284H144.0435A3.0469,3.0469,0,0,1,141,280.9565v-1.913A3.0469,3.0469,0,0,1,144.0435,276h123.913m0-1H144.0435A4.0435,4.0435,0,0,0,140,279.0435v1.913A4.0435,4.0435,0,0,0,144.0435,285h123.913A4.0435,4.0435,0,0,0,272,280.9565v-1.913A4.0435,4.0435,0,0,0,267.9565,275Z"/><path class="cls-2" d="M145.0435,289.5H268.9561a3.5439,3.5439,0,0,1,3.5439,3.5439v1.9121a3.5439,3.5439,0,0,1-3.5439,3.5439H145.0439a3.5439,3.5439,0,0,1-3.5439-3.5439v-1.9126A3.5435,3.5435,0,0,1,145.0435,289.5Z"/><path class="cls-2" d="M268.9565,290A3.0469,3.0469,0,0,1,272,293.0435v1.913A3.0469,3.0469,0,0,1,268.9565,298H145.0435A3.0469,3.0469,0,0,1,142,294.9565v-1.913A3.0469,3.0469,0,0,1,145.0435,290h123.913m0-1H145.0435A4.0435,4.0435,0,0,0,141,293.0435v1.913A4.0435,4.0435,0,0,0,145.0435,299h123.913A4.0435,4.0435,0,0,0,273,294.9565v-1.913A4.0435,4.0435,0,0,0,268.9565,289Z"/><path class="cls-2" d="M145.0435,303.5H268.9561a3.5439,3.5439,0,0,1,3.5439,3.5439v1.9121a3.5439,3.5439,0,0,1-3.5439,3.5439H145.0439a3.5439,3.5439,0,0,1-3.5439-3.5439v-1.9126A3.5435,3.5435,0,0,1,145.0435,303.5Z"/><path class="cls-2" d="M268.9565,304A3.0469,3.0469,0,0,1,272,307.0435v1.913A3.0469,3.0469,0,0,1,268.9565,312H145.0435A3.0469,3.0469,0,0,1,142,308.9565v-1.913A3.0469,3.0469,0,0,1,145.0435,304h123.913m0-1H145.0435A4.0435,4.0435,0,0,0,141,307.0435v1.913A4.0435,4.0435,0,0,0,145.0435,313h123.913A4.0435,4.0435,0,0,0,273,308.9565v-1.913A4.0435,4.0435,0,0,0,268.9565,303Z"/><path class="cls-2" d="M145.0435,317.5H268.9561a3.5439,3.5439,0,0,1,3.5439,3.5439v1.9121a3.5439,3.5439,0,0,1-3.5439,3.5439H145.0439a3.5439,3.5439,0,0,1-3.5439-3.5439v-1.9126A3.5435,3.5435,0,0,1,145.0435,317.5Z"/><path class="cls-2" d="M268.9565,318A3.0469,3.0469,0,0,1,272,321.0435v1.913A3.0469,3.0469,0,0,1,268.9565,326H145.0435A3.0469,3.0469,0,0,1,142,322.9565v-1.913A3.0469,3.0469,0,0,1,145.0435,318h123.913m0-1H145.0435A4.0435,4.0435,0,0,0,141,321.0435v1.913A4.0435,4.0435,0,0,0,145.0435,327h123.913A4.0435,4.0435,0,0,0,273,322.9565v-1.913A4.0435,4.0435,0,0,0,268.9565,317Z"/><path class="cls-5" d="M226,53s63.2051,18.6149,72.5,72.5"/></g></svg>