<svg xmlns="http://www.w3.org/2000/svg" viewBox="0 0 278.61 100"><title>sfm-logo-2</title><g id="a29be24f-ba97-418e-a0a5-0c34ade8ad29" data-name="Layer 4"><rect width="250" height="100" fill="#f1faee"/></g><g id="aa310a96-96c1-4829-97f4-8f85fb6ca03c" data-name="Layer 1"><text transform="translate(93.5 44.04)" font-size="23" fill="#749393" stroke="#749393" stroke-miterlimit="10" stroke-width="0.25" font-family="AdobeMingStd-Light-B5pc-H, Adobe Ming Std">Sales Force <tspan x="0" y="22">Management</tspan></text><text transform="translate(94.5 44.04)" font-size="23" fill="#1d3557" stroke="#1d3557" stroke-miterlimit="10" stroke-width="0.25" font-family="AdobeMingStd-Light-B5pc-H, Adobe Ming Std">Sales Force <tspan x="0" y="22">Management</tspan></text></g><g id="bf43fcfb-5f4a-4fca-acc1-8e845ad2b928" data-name="Layer 2"><polyline points="54.07 17.49 58.48 26.15 56.27 34.81" fill="none" stroke="#030077" stroke-miterlimit="10" stroke-width="0.6"/><polyline points="52.01 26.15 50.77 36.26 55.72 40.76" fill="none" stroke="#840000" stroke-miterlimit="10" stroke-width="0.6"/><line x1="50.21" y1="41.84" x2="56.82" y2="48.33" fill="none" stroke="#bc6200" stroke-miterlimit="10" stroke-width="0.6"/><polyline points="60.59 36.97 59.58 42.11 65.64 47.25" fill="none" stroke="#1baac1" stroke-miterlimit="10" stroke-width="0.6"/><polyline points="61.23 31.02 65.09 35.59 65.09 41.3" fill="none" stroke="#968400" stroke-miterlimit="10" stroke-width="0.6"/><polyline points="64.53 25.61 69.49 33.44 69.49 42.38" fill="none" stroke="#030077" stroke-miterlimit="10" stroke-width="0.6"/><polyline points="50.77 49.95 60.68 52.12 72.8 49.95" fill="none" stroke="#030077" stroke-miterlimit="10" stroke-width="0.6"/><polyline points="50.77 56.45 59.58 57.53 71.69 55.37" fill="none" stroke="#840000" stroke-miterlimit="10" stroke-width="0.6"/><line x1="59.58" y1="62.94" x2="63.98" y2="74.84" fill="none" stroke="#bc6200" stroke-miterlimit="10" stroke-width="0.6"/><path d="M65.09,61.86l7.65-3.22s0,0,0,0l-3.29,8.6" fill="none" stroke="#030077" stroke-miterlimit="10" stroke-width="0.6"/><polyline points="50.77 61.86 50.77 70.77 56.82 80.8" fill="none" stroke="#968400" stroke-miterlimit="10" stroke-width="0.6"/><line x1="55.72" y1="65.65" x2="58.48" y2="74.84" fill="none" stroke="#1baac1" stroke-miterlimit="10" stroke-width="0.6"/><ellipse cx="54.07" cy="16.41" rx="1.1" ry="1.08" fill="none" stroke="#030077" stroke-miterlimit="10" stroke-width="0.6"/><ellipse cx="56.27" cy="35.89" rx="1.1" ry="1.08" fill="none" stroke="#030077" stroke-miterlimit="10" stroke-width="0.6"/><ellipse cx="51.87" cy="25.07" rx="1.1" ry="1.08" fill="none" stroke="#840000" stroke-miterlimit="10" stroke-width="0.6"/><ellipse cx="56.27" cy="41.3" rx="1.1" ry="1.08" fill="none" stroke="#840000" stroke-miterlimit="10" stroke-width="0.6"/><ellipse cx="49.66" cy="41.3" rx="1.1" ry="1.08" fill="none" stroke="#bc6200" stroke-miterlimit="10" stroke-width="0.6"/><ellipse cx="57.37" cy="48.87" rx="1.1" ry="1.08" fill="none" stroke="#bc6200" stroke-miterlimit="10" stroke-width="0.6"/><ellipse cx="49.66" cy="49.96" rx="1.1" ry="1.08" fill="none" stroke="#030077" stroke-miterlimit="10" stroke-width="0.6"/><ellipse cx="73.9" cy="49.96" rx="1.1" ry="1.08" fill="none" stroke="#030077" stroke-miterlimit="10" stroke-width="0.6"/><ellipse cx="66.19" cy="47.79" rx="1.1" ry="1.08" fill="none" stroke="#1baac1" stroke-miterlimit="10" stroke-width="0.6"/><ellipse cx="60.68" cy="35.89" rx="1.1" ry="1.08" fill="none" stroke="#1baac1" stroke-miterlimit="10" stroke-width="0.6"/><ellipse cx="63.98" cy="25.07" rx="1.1" ry="1.08" fill="none" stroke="#030077" stroke-miterlimit="10" stroke-width="0.6"/><ellipse cx="69.49" cy="43.46" rx="1.1" ry="1.08" fill="none" stroke="#030077" stroke-miterlimit="10" stroke-width="0.6"/><ellipse cx="60.68" cy="30.48" rx="1.1" ry="1.08" fill="none" stroke="#968400" stroke-miterlimit="10" stroke-width="0.6"/><ellipse cx="65.09" cy="42.38" rx="1.1" ry="1.08" fill="none" stroke="#968400" stroke-miterlimit="10" stroke-width="0.6"/><ellipse cx="49.66" cy="56.45" rx="1.1" ry="1.08" fill="none" stroke="#840000" stroke-miterlimit="10" stroke-width="0.6"/><ellipse cx="72.8" cy="55.37" rx="1.1" ry="1.08" fill="none" stroke="#840000" stroke-miterlimit="10" stroke-width="0.6"/><ellipse cx="50.77" cy="60.78" rx="1.1" ry="1.08" fill="none" stroke="#968400" stroke-miterlimit="10" stroke-width="0.6"/><ellipse cx="57.37" cy="81.34" rx="1.1" ry="1.08" fill="none" stroke="#968400" stroke-miterlimit="10" stroke-width="0.6"/><ellipse cx="55.17" cy="65.1" rx="1.1" ry="1.08" fill="none" stroke="#1baac1" stroke-miterlimit="10" stroke-width="0.6"/><ellipse cx="58.48" cy="75.93" rx="1.1" ry="1.08" fill="none" stroke="#1baac1" stroke-miterlimit="10" stroke-width="0.6"/><ellipse cx="59.58" cy="61.86" rx="1.1" ry="1.08" fill="none" stroke="#bc6200" stroke-miterlimit="10" stroke-width="0.6"/><ellipse cx="63.98" cy="75.93" rx="1.1" ry="1.08" fill="none" stroke="#bc6200" stroke-miterlimit="10" stroke-width="0.6"/><ellipse cx="63.98" cy="61.86" rx="1.1" ry="1.08" fill="none" stroke="#030077" stroke-miterlimit="10" stroke-width="0.6"/><ellipse cx="69.49" cy="68.35" rx="1.1" ry="1.08" fill="none" stroke="#030077" stroke-miterlimit="10" stroke-width="0.6"/><polyline points="36.45 15.33 32.04 23.98 34.24 32.64" fill="none" stroke="#1baac1" stroke-miterlimit="10" stroke-width="0.6"/><polyline points="38.51 23.98 39.75 34.1 34.79 38.59" fill="none" stroke="#bc6200" stroke-miterlimit="10" stroke-width="0.6"/><line x1="40.3" y1="39.68" x2="33.69" y2="46.17" fill="none" stroke="#1baac1" stroke-miterlimit="10" stroke-width="0.6"/><polyline points="29.93 34.81 30.94 39.95 24.88 45.09" fill="none" stroke="#968400" stroke-miterlimit="10" stroke-width="0.6"/><polyline points="29.42 28.89 25.48 33.56 25.48 39.39" fill="none" stroke="#840000" stroke-miterlimit="10" stroke-width="0.6"/><polyline points="25.98 23.44 21.02 31.27 21.02 40.22" fill="none" stroke="#1baac1" stroke-miterlimit="10" stroke-width="0.6"/><line x1="30.94" y1="60.78" x2="26.53" y2="72.68" fill="none" stroke="#bc6200" stroke-miterlimit="10" stroke-width="0.6"/><path d="M25.43,59.69l-7.66-3.22a0,0,0,0,0,0,0L21,65.1" fill="none" stroke="#1baac1" stroke-miterlimit="10" stroke-width="0.6"/><polyline points="41.4 60.23 41.4 68.89 33.69 78.63" fill="none" stroke="#030077" stroke-miterlimit="10" stroke-width="0.6"/><line x1="34.79" y1="63.48" x2="32.04" y2="72.68" fill="none" stroke="#840000" stroke-miterlimit="10" stroke-width="0.6"/><ellipse cx="36.45" cy="14.25" rx="1.1" ry="1.08" fill="none" stroke="#1baac1" stroke-miterlimit="10" stroke-width="0.6"/><ellipse cx="34.24" cy="33.72" rx="1.1" ry="1.08" fill="none" stroke="#1baac1" stroke-miterlimit="10" stroke-width="0.6"/><ellipse cx="38.65" cy="22.9" rx="1.1" ry="1.08" fill="none" stroke="#bc6200" stroke-miterlimit="10" stroke-width="0.6"/><ellipse cx="34.24" cy="39.13" rx="1.1" ry="1.08" fill="none" stroke="#bc6200" stroke-miterlimit="10" stroke-width="0.6"/><ellipse cx="40.85" cy="39.13" rx="1.1" ry="1.08" fill="none" stroke="#1baac1" stroke-miterlimit="10" stroke-width="0.6"/><ellipse cx="24.33" cy="45.63" rx="1.1" ry="1.08" fill="none" stroke="#968400" stroke-miterlimit="10" stroke-width="0.6"/><ellipse cx="29.84" cy="33.72" rx="1.1" ry="1.08" fill="none" stroke="#968400" stroke-miterlimit="10" stroke-width="0.6"/><ellipse cx="26.53" cy="22.9" rx="1.1" ry="1.08" fill="none" stroke="#1baac1" stroke-miterlimit="10" stroke-width="0.6"/><ellipse cx="21.02" cy="41.3" rx="1.1" ry="1.08" fill="none" stroke="#1baac1" stroke-miterlimit="10" stroke-width="0.6"/><ellipse cx="29.98" cy="28.34" rx="1.13" ry="1.11" fill="none" stroke="#840000" stroke-miterlimit="10" stroke-width="0.6"/><ellipse cx="25.48" cy="40.5" rx="1.13" ry="1.11" fill="none" stroke="#840000" stroke-miterlimit="10" stroke-width="0.6"/><ellipse cx="40.85" cy="59.69" rx="1.1" ry="1.08" fill="none" stroke="#030077" stroke-miterlimit="10" stroke-width="0.6"/><ellipse cx="33.14" cy="79.17" rx="1.1" ry="1.08" fill="none" stroke="#030077" stroke-miterlimit="10" stroke-width="0.6"/><ellipse cx="35.34" cy="62.94" rx="1.1" ry="1.08" fill="none" stroke="#840000" stroke-miterlimit="10" stroke-width="0.6"/><ellipse cx="32.04" cy="73.76" rx="1.1" ry="1.08" fill="none" stroke="#840000" stroke-miterlimit="10" stroke-width="0.6"/><ellipse cx="30.94" cy="59.69" rx="1.1" ry="1.08" fill="none" stroke="#bc6200" stroke-miterlimit="10" stroke-width="0.6"/><ellipse cx="26.53" cy="73.76" rx="1.1" ry="1.08" fill="none" stroke="#bc6200" stroke-miterlimit="10" stroke-width="0.6"/><ellipse cx="26.53" cy="59.69" rx="1.1" ry="1.08" fill="none" stroke="#1baac1" stroke-miterlimit="10" stroke-width="0.6"/><ellipse cx="21.02" cy="66.19" rx="1.1" ry="1.08" fill="none" stroke="#1baac1" stroke-miterlimit="10" stroke-width="0.6"/><ellipse cx="33.14" cy="46.71" rx="1.1" ry="1.08" fill="none" stroke="#1baac1" stroke-miterlimit="10" stroke-width="0.6"/><line x1="18.27" y1="44" x2="21.57" y2="49.41" fill="none" stroke="#bc6200" stroke-miterlimit="10" stroke-width="0.6"/><polyline points="17.72 51.4 22.92 53.2 27.08 50.5" fill="none" stroke="#840000" stroke-miterlimit="10" stroke-width="0.6"/><line x1="32.75" y1="50.62" x2="29.13" y2="54.7" fill="none" stroke="#030077" stroke-miterlimit="10" stroke-width="0.6"/><polyline points="35.89 55.91 37.73 47.79 41.4 45.09" fill="none" stroke="#968400" stroke-miterlimit="10" stroke-width="0.6"/><line x1="43.61" y1="49.41" x2="41.4" y2="53.74" fill="none" stroke="#968400" stroke-miterlimit="10" stroke-width="0.6"/><ellipse cx="17.72" cy="43.46" rx="1.1" ry="1.08" fill="none" stroke="#bc6200" stroke-miterlimit="10" stroke-width="0.6"/><ellipse cx="22.12" cy="49.96" rx="1.1" ry="1.08" fill="none" stroke="#bc6200" stroke-miterlimit="10" stroke-width="0.6"/><ellipse cx="16.47" cy="51.55" rx="1.13" ry="1.11" fill="none" stroke="#840000" stroke-miterlimit="10" stroke-width="0.6"/><ellipse cx="27.63" cy="49.96" rx="1.1" ry="1.08" fill="none" stroke="#840000" stroke-miterlimit="10" stroke-width="0.6"/><ellipse cx="33.14" cy="49.96" rx="1.1" ry="1.08" fill="none" stroke="#030077" stroke-miterlimit="10" stroke-width="0.6"/><ellipse cx="28.73" cy="55.37" rx="1.1" ry="1.08" fill="none" stroke="#030077" stroke-miterlimit="10" stroke-width="0.6"/><ellipse cx="41.95" cy="44.54" rx="1.1" ry="1.08" fill="none" stroke="#968400" stroke-miterlimit="10" stroke-width="0.6"/><ellipse cx="35.34" cy="56.45" rx="1.1" ry="1.08" fill="none" stroke="#968400" stroke-miterlimit="10" stroke-width="0.6"/><ellipse cx="44.16" cy="48.87" rx="1.1" ry="1.08" fill="none" stroke="#968400" stroke-miterlimit="10" stroke-width="0.6"/><ellipse cx="40.85" cy="54.28" rx="1.1" ry="1.08" fill="none" stroke="#968400" stroke-miterlimit="10" stroke-width="0.6"/><polyline points="47.26 13.25 44.21 22.77 45.35 34.81" fill="none" stroke="#840000" stroke-miterlimit="10" stroke-width="0.6"/><ellipse cx="45.26" cy="35.89" rx="1.1" ry="1.08" fill="none" stroke="#840000" stroke-miterlimit="10" stroke-width="0.6"/><ellipse cx="47.46" cy="12.08" rx="1.1" ry="1.08" fill="none" stroke="#840000" stroke-miterlimit="10" stroke-width="0.6"/><polyline points="46.36 66.19 46.36 76.27 41.4 81.88" fill="none" stroke="#030077" stroke-miterlimit="10" stroke-width="0.6"/><ellipse cx="46.36" cy="65.1" rx="1.1" ry="1.08" fill="none" stroke="#030077" stroke-miterlimit="10" stroke-width="0.6"/><ellipse cx="40.85" cy="82.42" rx="1.1" ry="1.08" fill="none" stroke="#030077" stroke-miterlimit="10" stroke-width="0.6"/></g></svg>