<svg xmlns="http://www.w3.org/2000/svg" width="250" height="100" viewBox="0 0 250 100"><defs><style>.a9939d96-c675-4d47-b852-b3fb4bed998f{fill:#f1faee;}.b7ded37f-fe5f-4850-b705-ca485ffe7a48{fill:#1d3557;stroke:#1d3557;stroke-width:0.25px;}.ac75dafb-b6d9-4298-9b2f-519b8b58be84,.b7ded37f-fe5f-4850-b705-ca485ffe7a48,.b816511f-07d3-463c-9d41-4e42204161cd,.b8ddfbbc-944f-4cdf-9a30-6e7b27fe1258,.bbb5e357-dd8c-489b-83b4-67808d321cd7,.bfefcbc1-b0a2-4731-9e5a-5f93972b10e5{stroke-miterlimit:10;}.ac75dafb-b6d9-4298-9b2f-519b8b58be84,.b816511f-07d3-463c-9d41-4e42204161cd,.b8ddfbbc-944f-4cdf-9a30-6e7b27fe1258,.bbb5e357-dd8c-489b-83b4-67808d321cd7,.bfefcbc1-b0a2-4731-9e5a-5f93972b10e5{fill:none;stroke-width:0.6px;}.ac75dafb-b6d9-4298-9b2f-519b8b58be84{stroke:#030077;}.bfefcbc1-b0a2-4731-9e5a-5f93972b10e5{stroke:#840000;}.b816511f-07d3-463c-9d41-4e42204161cd{stroke:#bc6200;}.b8ddfbbc-944f-4cdf-9a30-6e7b27fe1258{stroke:#1baac1;}.bbb5e357-dd8c-489b-83b4-67808d321cd7{stroke:#968400;}</style></defs><title>sfm-logo-3</title><g id="ffddba7c-034a-4243-8e67-8d307ad691e1" data-name="Layer 4"><rect class="a9939d96-c675-4d47-b852-b3fb4bed998f" width="250" height="100"/></g><g id="aa9e2bd7-70bc-421f-97d3-01c91ee0f0e9" data-name="Layer 1"><path class="b7ded37f-fe5f-4850-b705-ca485ffe7a48" d="M89.4888,41.4863l1.7021-2.0239a7.6136,7.6136,0,0,0,5.083,2.0933,3.4613,3.4613,0,0,0,2.0933-.5752,1.7117,1.7117,0,0,0,.7588-1.4492v-.0459a1.6427,1.6427,0,0,0-.69-1.4029,9.2623,9.2623,0,0,0-2.9438-1.0581,10.7367,10.7367,0,0,1-3.9561-1.61,3.8256,3.8256,0,0,1-1.4033-3.1973v-.0459a4.235,4.235,0,0,1,1.541-3.3809A6.018,6.018,0,0,1,95.63,27.5024a8.9774,8.9774,0,0,1,5.8423,2.0425l-1.5181,2.1436a7.36,7.36,0,0,0-4.37-1.6563,3.1379,3.1379,0,0,0-1.9321.5523,1.599,1.599,0,0,0-.69,1.3569v.0459a1.6726,1.6726,0,0,0,.7593,1.4492,5.9042,5.9042,0,0,0,1.15.5288,17.565,17.565,0,0,0,1.9321.5523,9.5508,9.5508,0,0,1,3.8638,1.6557,3.9021,3.9021,0,0,1,1.2881,3.0591v.0459a4.3292,4.3292,0,0,1-1.61,3.542,6.3259,6.3259,0,0,1-4.14,1.2656A9.6431,9.6431,0,0,1,89.4888,41.4863Z"/><path class="b7ded37f-fe5f-4850-b705-ca485ffe7a48" d="M105.4512,43.1426a3.3845,3.3845,0,0,1-1.2881-2.7832v-.0459a3.44,3.44,0,0,1,1.4033-2.9439,5.9745,5.9745,0,0,1,3.6108-.9663,10.4055,10.4055,0,0,1,3.2662.5064V36.61q0-2.6448-3.0132-2.6451a9.1206,9.1206,0,0,0-3.4732.7593l-.7358-2.185a10.9773,10.9773,0,0,1,4.5771-.9893,5.3672,5.3672,0,0,1,4.0249,1.3569,4.9792,4.9792,0,0,1,1.3111,3.7491v7.1992H112.42V42.3379a4.9208,4.9208,0,0,1-3.956,1.7705A4.7021,4.7021,0,0,1,105.4512,43.1426Zm6.1181-1.7715a2.2688,2.2688,0,0,0,.92-1.8857v-.8282a7.5636,7.5636,0,0,0-2.76-.4829q-2.8521,0-2.8516,2.0239v.0464a1.6375,1.6375,0,0,0,.69,1.357,2.7855,2.7855,0,0,0,1.6787.4824A3.68,3.68,0,0,0,111.5693,41.3711Z"/><path class="b7ded37f-fe5f-4850-b705-ca485ffe7a48" d="M118.63,27.0654h2.7827v16.79H118.63Z"/><path class="b7ded37f-fe5f-4850-b705-ca485ffe7a48" d="M125.6143,42.3838a6.095,6.095,0,0,1-1.8086-4.5542v-.0459a6.376,6.376,0,0,1,1.6591-4.4624,5.5652,5.5652,0,0,1,4.2862-1.8628,5.3779,5.3779,0,0,1,4.3789,1.9551A7.0428,7.0428,0,0,1,135.582,37.99q0,.1158-.0117.3106c-.0078.1308-.0195.2876-.0351.4717h-8.9239a3.7794,3.7794,0,0,0,1.1963,2.2763,3.4186,3.4186,0,0,0,2.3.8057,4.5878,4.5878,0,0,0,3.2891-1.4492l1.6328,1.4492a6.1362,6.1362,0,0,1-4.9678,2.2773A6.0433,6.0433,0,0,1,125.6143,42.3838Zm7.1845-5.4512a3.81,3.81,0,0,0-.917-2.2773,2.7584,2.7584,0,0,0-2.1533-.92,2.8327,2.8327,0,0,0-2.1094.8969,3.8384,3.8384,0,0,0-1.0312,2.3Z"/><path class="b7ded37f-fe5f-4850-b705-ca485ffe7a48" d="M137.375,42.2686l1.2422-1.8863a6.7855,6.7855,0,0,0,3.9785,1.4956q1.8867,0,1.8867-1.3115v-.0459q0-.6212-.8281-1.0351a4.599,4.599,0,0,0-.6787-.2759q-.4717-.16-1.208-.3911a7.92,7.92,0,0,1-2.5752-1.104,2.8873,2.8873,0,0,1-1.22-2.461v-.0459a3.3362,3.3362,0,0,1,1.2656-2.7138,4.6392,4.6392,0,0,1,3.0586-.9893,7.9687,7.9687,0,0,1,4.4629,1.38l-1.1045,1.978a6.8175,6.8175,0,0,0-3.4268-1.15q-1.7021,0-1.7021,1.1963v.0459q0,.575.8271,1.0347a6.0791,6.0791,0,0,0,.7022.2763q.47.1611,1.208.4141,3.77,1.1726,3.7715,3.542v.0459a3.4609,3.4609,0,0,1-1.3106,2.875,5.0825,5.0825,0,0,1-3.1973.9433A8.1057,8.1057,0,0,1,137.375,42.2686Z"/><path class="b7ded37f-fe5f-4850-b705-ca485ffe7a48" d="M157.1094,27.7554h11.9824v2.5761h-9.1543v4.3931h8.1191V37.3h-8.1191v6.5552h-2.8281Z"/><path class="b7ded37f-fe5f-4850-b705-ca485ffe7a48" d="M172.7031,42.291a6.0479,6.0479,0,0,1-1.84-4.4385v-.0459a6.1051,6.1051,0,0,1,1.84-4.4853,6.7274,6.7274,0,0,1,9.27-.023,6.0779,6.0779,0,0,1,1.84,4.462v.0463a6.0763,6.0763,0,0,1-1.84,4.462,6.3848,6.3848,0,0,1-4.67,1.8632A6.2375,6.2375,0,0,1,172.7031,42.291Zm7.336-1.7246a3.8641,3.8641,0,0,0,.99-2.7139v-.0459a3.9334,3.9334,0,0,0-1.0352-2.76,3.5447,3.5447,0,0,0-2.6914-1.15,3.4581,3.4581,0,0,0-2.6679,1.1269,3.8948,3.8948,0,0,0-.9893,2.7369v.0463a3.9516,3.9516,0,0,0,1.0352,2.7369,3.516,3.516,0,0,0,2.6689,1.15A3.4792,3.4792,0,0,0,180.0391,40.5664Z"/><path class="b7ded37f-fe5f-4850-b705-ca485ffe7a48" d="M186.6406,31.7114h2.7832v2.7368a4.1921,4.1921,0,0,1,4.3008-2.9668v2.9439h-.1611a3.8706,3.8706,0,0,0-2.99,1.1963,5.2367,5.2367,0,0,0-1.1494,3.6108v4.6231h-2.7832Z"/><path class="b7ded37f-fe5f-4850-b705-ca485ffe7a48" d="M196.8525,42.291a6.1254,6.1254,0,0,1-1.7939-4.4385v-.0459a6.1076,6.1076,0,0,1,1.7939-4.4624,6.0354,6.0354,0,0,1,4.5313-1.8857,6.3257,6.3257,0,0,1,4.8525,2.0928l-1.748,1.8633a4.2887,4.2887,0,0,0-3.1279-1.5181,3.1914,3.1914,0,0,0-2.5069,1.1269,4.0054,4.0054,0,0,0-1.0117,2.7369v.0463a4.0343,4.0343,0,0,0,1.0117,2.76,3.4047,3.4047,0,0,0,2.6221,1.127,4.3378,4.3378,0,0,0,3.1514-1.4952l1.6787,1.6563a6.3957,6.3957,0,0,1-4.9678,2.2773A6.0051,6.0051,0,0,1,196.8525,42.291Z"/><path class="b7ded37f-fe5f-4850-b705-ca485ffe7a48" d="M209.6553,42.3838a6.095,6.095,0,0,1-1.8086-4.5542v-.0459a6.3734,6.3734,0,0,1,1.6592-4.4624,5.5649,5.5649,0,0,1,4.2861-1.8628,5.3793,5.3793,0,0,1,4.3789,1.9551A7.0428,7.0428,0,0,1,219.623,37.99q0,.1158-.0117.3106c-.0078.1308-.0195.2876-.0351.4717h-8.9239a3.7794,3.7794,0,0,0,1.1963,2.2763,3.42,3.42,0,0,0,2.3.8057,4.5876,4.5876,0,0,0,3.2891-1.4492l1.6328,1.4492a6.1348,6.1348,0,0,1-4.9678,2.2773A6.0433,6.0433,0,0,1,209.6553,42.3838Zm7.1845-5.4512a3.8106,3.8106,0,0,0-.9169-2.2773,2.7573,2.7573,0,0,0-2.1534-.92,2.8305,2.8305,0,0,0-2.1084.8969,3.8274,3.8274,0,0,0-1.0312,2.3Z"/><path class="b7ded37f-fe5f-4850-b705-ca485ffe7a48" d="M90.57,49.7559H93.583l4.8989,7.6123,4.899-7.6123h3.0131v16.1h-2.8291V54.31l-5.083,7.59H98.39L93.353,54.3555v11.5H90.57Z"/><path class="b7ded37f-fe5f-4850-b705-ca485ffe7a48" d="M110.6948,65.1426a3.3845,3.3845,0,0,1-1.2881-2.7832v-.0459a3.4418,3.4418,0,0,1,1.4034-2.9444,5.9777,5.9777,0,0,1,3.6108-.9658,10.4187,10.4187,0,0,1,3.2661.5059V58.61q0-2.644-3.0132-2.6446a9.1283,9.1283,0,0,0-3.4731.7588l-.7359-2.1855a10.9927,10.9927,0,0,1,4.5772-.9883,5.3671,5.3671,0,0,1,4.0249,1.3564,4.9788,4.9788,0,0,1,1.311,3.7491v7.1992h-2.7138V64.3379a4.921,4.921,0,0,1-3.9561,1.77A4.7021,4.7021,0,0,1,110.6948,65.1426Zm6.1182-1.7715a2.2687,2.2687,0,0,0,.92-1.8857v-.8282a7.5731,7.5731,0,0,0-2.76-.4824q-2.8521,0-2.8516,2.0234v.0459a1.6373,1.6373,0,0,0,.69,1.3575,2.7857,2.7857,0,0,0,1.6787.4824A3.68,3.68,0,0,0,116.813,63.3711Z"/><path class="b7ded37f-fe5f-4850-b705-ca485ffe7a48" d="M123.7129,53.7119h2.7832v1.8623a4.49,4.49,0,0,1,3.7949-2.1162,4.15,4.15,0,0,1,3.1973,1.2656,4.7962,4.7962,0,0,1,1.1269,3.3809v7.751H131.832v-6.9q0-2.9664-2.6-2.9668a2.592,2.592,0,0,0-1.9775.8056,3.038,3.038,0,0,0-.7588,2.2081v6.8535h-2.7832Z"/><path class="b7ded37f-fe5f-4850-b705-ca485ffe7a48" d="M138.4551,65.1426a3.3851,3.3851,0,0,1-1.2871-2.7832v-.0459a3.4412,3.4412,0,0,1,1.4023-2.9444,5.9824,5.9824,0,0,1,3.6113-.9658,10.4121,10.4121,0,0,1,3.2657.5059V58.61q0-2.644-3.0127-2.6446a9.1312,9.1312,0,0,0-3.4737.7588l-.7353-2.1855a10.9886,10.9886,0,0,1,4.5771-.9883,5.3706,5.3706,0,0,1,4.0254,1.3564,4.9821,4.9821,0,0,1,1.3106,3.7491v7.1992h-2.7139V64.3379a4.9208,4.9208,0,0,1-3.956,1.77A4.7035,4.7035,0,0,1,138.4551,65.1426Zm6.1191-1.7715a2.27,2.27,0,0,0,.92-1.8857v-.8282a7.5739,7.5739,0,0,0-2.7607-.4824q-2.8521,0-2.8516,2.0234v.0459a1.635,1.635,0,0,0,.6905,1.3575,2.7824,2.7824,0,0,0,1.6777.4824A3.6829,3.6829,0,0,0,144.5742,63.3711Z"/><path class="b7ded37f-fe5f-4850-b705-ca485ffe7a48" d="M151.4512,68.1182l1.0342-2.1016a8.2288,8.2288,0,0,0,4.3242,1.2881q3.8408,0,3.8408-3.708v-.9385A5.2218,5.2218,0,0,1,156.373,64.89a5.3165,5.3165,0,0,1-3.8183-1.4951,5.5472,5.5472,0,0,1-1.7022-4.1865v-.0459a5.5751,5.5751,0,0,1,1.7022-4.209,5.4225,5.4225,0,0,1,3.8183-1.4951,5.3319,5.3319,0,0,1,4.254,2.07V53.7119H163.41v9.6592a6.21,6.21,0,0,1-1.5411,4.5771,6.7886,6.7886,0,0,1-4.99,1.6329A10.1862,10.1862,0,0,1,151.4512,68.1182Zm8.16-6.5176a3.1271,3.1271,0,0,0,1.0625-2.4151V59.14a3.1257,3.1257,0,0,0-1.0625-2.415,3.6035,3.6035,0,0,0-2.5146-.92,3.3638,3.3638,0,0,0-2.4463.92,3.1493,3.1493,0,0,0-1.0147,2.415v.0459a3.1494,3.1494,0,0,0,1.0147,2.4151,3.4636,3.4636,0,0,0,2.4463.92A3.6035,3.6035,0,0,0,159.6113,61.6006Z"/><path class="b7ded37f-fe5f-4850-b705-ca485ffe7a48" d="M167.4727,64.3838a6.1,6.1,0,0,1-1.8086-4.5547v-.0459a6.3751,6.3751,0,0,1,1.66-4.4619,5.5618,5.5618,0,0,1,4.2852-1.8633,5.3794,5.3794,0,0,1,4.3789,1.9551,7.0414,7.0414,0,0,1,1.4531,4.5771q0,.1158-.0117.3106t-.0352.4717h-8.9238A3.78,3.78,0,0,0,169.666,63.05a3.4256,3.4256,0,0,0,2.3008.8047,4.59,4.59,0,0,0,3.2891-1.4492l1.6328,1.4492a6.1382,6.1382,0,0,1-4.9688,2.2773A6.0464,6.0464,0,0,1,167.4727,64.3838Zm7.1855-5.4512a3.8145,3.8145,0,0,0-.918-2.2773,2.7539,2.7539,0,0,0-2.1533-.92,2.8273,2.8273,0,0,0-2.1084.8974,3.8325,3.8325,0,0,0-1.0312,2.3Z"/><path class="b7ded37f-fe5f-4850-b705-ca485ffe7a48" d="M180.2227,53.7119h2.7832v1.84a4.4654,4.4654,0,0,1,3.7031-2.0938,3.7284,3.7284,0,0,1,3.6338,2.14,4.9632,4.9632,0,0,1,4.0937-2.14,4.0953,4.0953,0,0,1,3.128,1.22,4.81,4.81,0,0,1,1.1269,3.4268v7.751h-2.7832v-6.9q0-2.9664-2.4609-2.9668a2.3579,2.3579,0,0,0-1.8623.7822,3.1822,3.1822,0,0,0-.7364,2.2315v6.8535h-2.7832V58.9326q0-2.9443-2.4609-2.9443a2.4388,2.4388,0,0,0-1.8857.8056,3.2107,3.2107,0,0,0-.7129,2.2081v6.8535h-2.7832Z"/><path class="b7ded37f-fe5f-4850-b705-ca485ffe7a48" d="M203.2139,64.3838a6.0961,6.0961,0,0,1-1.8086-4.5547v-.0459a6.3739,6.3739,0,0,1,1.6592-4.4619,5.5636,5.5636,0,0,1,4.2861-1.8633,5.3807,5.3807,0,0,1,4.3789,1.9551,7.046,7.046,0,0,1,1.4521,4.5771q0,.1158-.0117.3106t-.0351.4717h-8.9239a3.7864,3.7864,0,0,0,1.1963,2.2773,3.4248,3.4248,0,0,0,2.3.8047,4.5878,4.5878,0,0,0,3.2891-1.4492l1.6328,1.4492a6.1348,6.1348,0,0,1-4.9678,2.2773A6.0433,6.0433,0,0,1,203.2139,64.3838Zm7.1845-5.4512a3.8077,3.8077,0,0,0-.917-2.2773,2.7553,2.7553,0,0,0-2.1533-.92,2.8273,2.8273,0,0,0-2.1084.8974,3.8267,3.8267,0,0,0-1.0312,2.3Z"/><path class="b7ded37f-fe5f-4850-b705-ca485ffe7a48" d="M215.9639,53.7119h2.7832v1.8623a4.49,4.49,0,0,1,3.7949-2.1162,4.1513,4.1513,0,0,1,3.1973,1.2656,4.7921,4.7921,0,0,1,1.1269,3.3809v7.751H224.083v-6.9q0-2.9664-2.6-2.9668a2.592,2.592,0,0,0-1.9775.8056,3.038,3.038,0,0,0-.7588,2.2081v6.8535h-2.7832Z"/><path class="b7ded37f-fe5f-4850-b705-ca485ffe7a48" d="M230.7988,62.4971V56.1035h-1.541V53.7119h1.541V50.377h2.7832v3.3349h3.2657v2.3916H233.582v5.957a1.3311,1.3311,0,0,0,1.4942,1.5176,3.8066,3.8066,0,0,0,1.7256-.414v2.2773a5.0261,5.0261,0,0,1-2.5069.6211Q230.7984,66.0625,230.7988,62.4971Z"/></g><g id="ec1fad83-8d0d-452d-8937-06d3d4d4e627" data-name="Layer 2"><polyline class="ac75dafb-b6d9-4298-9b2f-519b8b58be84" points="54.07 17.493 58.477 26.149 56.273 34.806"/><polyline class="bfefcbc1-b0a2-4731-9e5a-5f93972b10e5" points="52.005 26.149 50.766 36.263 55.723 40.757"/><line class="b816511f-07d3-463c-9d41-4e42204161cd" x1="50.2148" y1="41.8396" x2="56.8242" y2="48.3321"/><polyline class="b8ddfbbc-944f-4cdf-9a30-6e7b27fe1258" points="60.588 36.97 59.578 42.11 65.637 47.25"/><polyline class="bbb5e357-dd8c-489b-83b4-67808d321cd7" points="61.23 31.019 65.086 35.587 65.086 41.299"/><polyline class="ac75dafb-b6d9-4298-9b2f-519b8b58be84" points="64.535 25.608 69.492 33.435 69.492 42.381"/><polyline class="ac75dafb-b6d9-4298-9b2f-519b8b58be84" points="50.766 49.955 60.68 52.119 72.797 49.955"/><polyline class="bfefcbc1-b0a2-4731-9e5a-5f93972b10e5" points="50.766 56.448 59.578 57.53 71.695 55.366"/><line class="b816511f-07d3-463c-9d41-4e42204161cd" x1="59.5781" y1="62.9403" x2="63.9843" y2="74.8433"/><path class="ac75dafb-b6d9-4298-9b2f-519b8b58be84" d="M65.0859,61.8582l7.6556-3.2229a.0255.0255,0,0,1,.0342.0321l-3.2835,8.6013"/><polyline class="bbb5e357-dd8c-489b-83b4-67808d321cd7" points="50.766 61.858 50.766 70.77 56.824 80.795"/><line class="b8ddfbbc-944f-4cdf-9a30-6e7b27fe1258" x1="55.7226" y1="65.6455" x2="58.4765" y2="74.8433"/><ellipse class="ac75dafb-b6d9-4298-9b2f-519b8b58be84" cx="54.0703" cy="16.4104" rx="1.1016" ry="1.0821"/><ellipse class="ac75dafb-b6d9-4298-9b2f-519b8b58be84" cx="56.2734" cy="35.8881" rx="1.1016" ry="1.0821"/><ellipse class="bfefcbc1-b0a2-4731-9e5a-5f93972b10e5" cx="51.8671" cy="25.0672" rx="1.1016" ry="1.0821"/><ellipse class="bfefcbc1-b0a2-4731-9e5a-5f93972b10e5" cx="56.2734" cy="41.2985" rx="1.1016" ry="1.0821"/><ellipse class="b816511f-07d3-463c-9d41-4e42204161cd" cx="49.664" cy="41.2985" rx="1.1016" ry="1.0821"/><ellipse class="b816511f-07d3-463c-9d41-4e42204161cd" cx="57.3749" cy="48.8731" rx="1.1016" ry="1.0821"/><ellipse class="ac75dafb-b6d9-4298-9b2f-519b8b58be84" cx="49.664" cy="49.9552" rx="1.1016" ry="1.0821"/><ellipse class="ac75dafb-b6d9-4298-9b2f-519b8b58be84" cx="73.8984" cy="49.9552" rx="1.1016" ry="1.0821"/><ellipse class="b8ddfbbc-944f-4cdf-9a30-6e7b27fe1258" cx="66.1875" cy="47.791" rx="1.1016" ry="1.0821"/><ellipse class="b8ddfbbc-944f-4cdf-9a30-6e7b27fe1258" cx="60.6796" cy="35.8881" rx="1.1016" ry="1.0821"/><ellipse class="ac75dafb-b6d9-4298-9b2f-519b8b58be84" cx="63.9843" cy="25.0672" rx="1.1016" ry="1.0821"/><ellipse class="ac75dafb-b6d9-4298-9b2f-519b8b58be84" cx="69.4922" cy="43.4627" rx="1.1016" ry="1.0821"/><ellipse class="bbb5e357-dd8c-489b-83b4-67808d321cd7" cx="60.6796" cy="30.4776" rx="1.1016" ry="1.0821"/><ellipse class="bbb5e357-dd8c-489b-83b4-67808d321cd7" cx="65.0859" cy="42.3806" rx="1.1016" ry="1.0821"/><ellipse class="bfefcbc1-b0a2-4731-9e5a-5f93972b10e5" cx="49.664" cy="56.4478" rx="1.1016" ry="1.0821"/><ellipse class="bfefcbc1-b0a2-4731-9e5a-5f93972b10e5" cx="72.7969" cy="55.3657" rx="1.1016" ry="1.0821"/><ellipse class="bbb5e357-dd8c-489b-83b4-67808d321cd7" cx="50.7656" cy="60.7761" rx="1.1016" ry="1.0821"/><ellipse class="bbb5e357-dd8c-489b-83b4-67808d321cd7" cx="57.3749" cy="81.3358" rx="1.1016" ry="1.0821"/><ellipse class="b8ddfbbc-944f-4cdf-9a30-6e7b27fe1258" cx="55.1718" cy="65.1045" rx="1.1016" ry="1.0821"/><ellipse class="b8ddfbbc-944f-4cdf-9a30-6e7b27fe1258" cx="58.4765" cy="75.9254" rx="1.1016" ry="1.0821"/><ellipse class="b816511f-07d3-463c-9d41-4e42204161cd" cx="59.5781" cy="61.8582" rx="1.1016" ry="1.0821"/><ellipse class="b816511f-07d3-463c-9d41-4e42204161cd" cx="63.9843" cy="75.9254" rx="1.1016" ry="1.0821"/><ellipse class="ac75dafb-b6d9-4298-9b2f-519b8b58be84" cx="63.9843" cy="61.8582" rx="1.1016" ry="1.0821"/><ellipse class="ac75dafb-b6d9-4298-9b2f-519b8b58be84" cx="69.4922" cy="68.3507" rx="1.1016" ry="1.0821"/><polyline class="b8ddfbbc-944f-4cdf-9a30-6e7b27fe1258" points="36.445 15.328 32.039 23.985 34.242 32.642"/><polyline class="b816511f-07d3-463c-9d41-4e42204161cd" points="38.511 23.985 39.75 34.098 34.793 38.593"/><line class="b8ddfbbc-944f-4cdf-9a30-6e7b27fe1258" x1="40.3007" y1="39.6754" x2="33.6913" y2="46.1679"/><polyline class="bbb5e357-dd8c-489b-83b4-67808d321cd7" points="29.928 34.806 30.937 39.946 24.879 45.086"/><polyline class="bfefcbc1-b0a2-4731-9e5a-5f93972b10e5" points="29.417 28.89 25.477 33.558 25.477 39.393"/><polyline class="b8ddfbbc-944f-4cdf-9a30-6e7b27fe1258" points="25.98 23.444 21.023 31.271 21.023 40.216"/><line class="b816511f-07d3-463c-9d41-4e42204161cd" x1="30.9374" y1="60.7761" x2="26.5311" y2="72.6791"/><path class="b8ddfbbc-944f-4cdf-9a30-6e7b27fe1258" d="M25.43,59.694,17.774,56.4711a.0256.0256,0,0,0-.0343.0321l3.2836,8.6013"/><polyline class="ac75dafb-b6d9-4298-9b2f-519b8b58be84" points="41.402 60.235 41.402 68.892 33.691 78.631"/><line class="bfefcbc1-b0a2-4731-9e5a-5f93972b10e5" x1="34.7929" y1="63.4813" x2="32.0389" y2="72.6791"/><ellipse class="b8ddfbbc-944f-4cdf-9a30-6e7b27fe1258" cx="36.4452" cy="14.2463" rx="1.1016" ry="1.0821"/><ellipse class="b8ddfbbc-944f-4cdf-9a30-6e7b27fe1258" cx="34.2421" cy="33.7239" rx="1.1016" ry="1.0821"/><ellipse class="b816511f-07d3-463c-9d41-4e42204161cd" cx="38.6483" cy="22.903" rx="1.1016" ry="1.0821"/><ellipse class="b816511f-07d3-463c-9d41-4e42204161cd" cx="34.2421" cy="39.1343" rx="1.1016" ry="1.0821"/><ellipse class="b8ddfbbc-944f-4cdf-9a30-6e7b27fe1258" cx="40.8515" cy="39.1343" rx="1.1016" ry="1.0821"/><ellipse class="bbb5e357-dd8c-489b-83b4-67808d321cd7" cx="24.328" cy="45.6269" rx="1.1016" ry="1.0821"/><ellipse class="bbb5e357-dd8c-489b-83b4-67808d321cd7" cx="29.8358" cy="33.7239" rx="1.1016" ry="1.0821"/><ellipse class="b8ddfbbc-944f-4cdf-9a30-6e7b27fe1258" cx="26.5311" cy="22.903" rx="1.1016" ry="1.0821"/><ellipse class="b8ddfbbc-944f-4cdf-9a30-6e7b27fe1258" cx="21.0233" cy="41.2985" rx="1.1016" ry="1.0821"/><ellipse class="bfefcbc1-b0a2-4731-9e5a-5f93972b10e5" cx="29.9795" cy="28.337" rx="1.1255" ry="1.1056"/><ellipse class="bfefcbc1-b0a2-4731-9e5a-5f93972b10e5" cx="25.4774" cy="40.4987" rx="1.1255" ry="1.1056"/><ellipse class="ac75dafb-b6d9-4298-9b2f-519b8b58be84" cx="40.8515" cy="59.694" rx="1.1016" ry="1.0821"/><ellipse class="ac75dafb-b6d9-4298-9b2f-519b8b58be84" cx="33.1405" cy="79.1716" rx="1.1016" ry="1.0821"/><ellipse class="bfefcbc1-b0a2-4731-9e5a-5f93972b10e5" cx="35.3436" cy="62.9403" rx="1.1016" ry="1.0821"/><ellipse class="bfefcbc1-b0a2-4731-9e5a-5f93972b10e5" cx="32.0389" cy="73.7612" rx="1.1016" ry="1.0821"/><ellipse class="b816511f-07d3-463c-9d41-4e42204161cd" cx="30.9374" cy="59.694" rx="1.1016" ry="1.0821"/><ellipse class="b816511f-07d3-463c-9d41-4e42204161cd" cx="26.5311" cy="73.7612" rx="1.1016" ry="1.0821"/><ellipse class="b8ddfbbc-944f-4cdf-9a30-6e7b27fe1258" cx="26.5311" cy="59.694" rx="1.1016" ry="1.0821"/><ellipse class="b8ddfbbc-944f-4cdf-9a30-6e7b27fe1258" cx="21.0233" cy="66.1866" rx="1.1016" ry="1.0821"/><ellipse class="b8ddfbbc-944f-4cdf-9a30-6e7b27fe1258" cx="33.1405" cy="46.709" rx="1.1016" ry="1.0821"/><line class="b816511f-07d3-463c-9d41-4e42204161cd" x1="18.2694" y1="44.0037" x2="21.5741" y2="49.4142"/><polyline class="bfefcbc1-b0a2-4731-9e5a-5f93972b10e5" points="17.719 51.398 22.92 53.201 27.082 50.496"/><line class="ac75dafb-b6d9-4298-9b2f-519b8b58be84" x1="32.749" y1="50.623" x2="29.1258" y2="54.6979"/><polyline class="bbb5e357-dd8c-489b-83b4-67808d321cd7" points="35.894 55.907 37.73 47.791 41.402 45.086"/><line class="bbb5e357-dd8c-489b-83b4-67808d321cd7" x1="43.6054" y1="49.4142" x2="41.4022" y2="53.7425"/><ellipse class="b816511f-07d3-463c-9d41-4e42204161cd" cx="17.7186" cy="43.4627" rx="1.1016" ry="1.0821"/><ellipse class="b816511f-07d3-463c-9d41-4e42204161cd" cx="22.1248" cy="49.9552" rx="1.1016" ry="1.0821"/><ellipse class="bfefcbc1-b0a2-4731-9e5a-5f93972b10e5" cx="16.4733" cy="51.5548" rx="1.1255" ry="1.1056"/><ellipse class="bfefcbc1-b0a2-4731-9e5a-5f93972b10e5" cx="27.6327" cy="49.9552" rx="1.1016" ry="1.0821"/><ellipse class="ac75dafb-b6d9-4298-9b2f-519b8b58be84" cx="33.1405" cy="49.9552" rx="1.1016" ry="1.0821"/><ellipse class="ac75dafb-b6d9-4298-9b2f-519b8b58be84" cx="28.7342" cy="55.3657" rx="1.1016" ry="1.0821"/><ellipse class="bbb5e357-dd8c-489b-83b4-67808d321cd7" cx="41.953" cy="44.5448" rx="1.1016" ry="1.0821"/><ellipse class="bbb5e357-dd8c-489b-83b4-67808d321cd7" cx="35.3436" cy="56.4478" rx="1.1016" ry="1.0821"/><ellipse class="bbb5e357-dd8c-489b-83b4-67808d321cd7" cx="44.1562" cy="48.8731" rx="1.1016" ry="1.0821"/><ellipse class="bbb5e357-dd8c-489b-83b4-67808d321cd7" cx="40.8515" cy="54.2836" rx="1.1016" ry="1.0821"/><polyline class="bfefcbc1-b0a2-4731-9e5a-5f93972b10e5" points="47.259 13.249 44.206 22.765 45.353 34.81"/><ellipse class="bfefcbc1-b0a2-4731-9e5a-5f93972b10e5" cx="45.2578" cy="35.8881" rx="1.1016" ry="1.0821"/><ellipse class="bfefcbc1-b0a2-4731-9e5a-5f93972b10e5" cx="47.4609" cy="12.0821" rx="1.1016" ry="1.0821"/><polyline class="ac75dafb-b6d9-4298-9b2f-519b8b58be84" points="46.359 66.187 46.359 76.273 41.402 81.877"/><ellipse class="ac75dafb-b6d9-4298-9b2f-519b8b58be84" cx="46.3593" cy="65.1045" rx="1.1016" ry="1.0821"/><ellipse class="ac75dafb-b6d9-4298-9b2f-519b8b58be84" cx="40.8515" cy="82.4179" rx="1.1016" ry="1.0821"/></g></svg>